<?xml version="1.0" standalone="no"?>
<!DOCTYPE svg PUBLIC "-//W3C//DTD SVG 20010904//EN"
 "http://www.w3.org/TR/2001/REC-SVG-20010904/DTD/svg10.dtd">
<svg version="1.0" xmlns="http://www.w3.org/2000/svg"
 width="1920.000000pt" height="1920.000000pt" viewBox="0 0 1920.000000 1920.000000"
 preserveAspectRatio="xMidYMid meet">
<metadata>
Created by potrace 1.11, written by Peter Selinger 2001-2013
</metadata>
<g transform="translate(0.000000,1920.000000) scale(0.100000,-0.100000)"
fill="#000000" stroke="none">
<path d="M11580 18944 c-306 -28 -583 -103 -845 -228 -456 -219 -799 -556
-1015 -999 -281 -578 -281 -1205 -1 -1782 212 -436 544 -768 987 -988 l105
-52 -6 -70 c-3 -38 -8 -199 -11 -357 -4 -227 -8 -288 -18 -288 -7 0 -65 12
-127 26 -261 59 -491 84 -780 84 -544 0 -1007 -100 -1438 -312 -462 -227 -771
-576 -832 -941 l-12 -73 -231 -77 c-396 -133 -920 -330 -1009 -380 l-37 -21
-235 233 -234 233 -79 -3 c-78 -4 -79 -4 -123 32 -145 118 -421 267 -584 314
-186 54 -302 45 -650 -50 -424 -116 -657 -155 -924 -155 -202 0 -368 29 -687
119 -575 163 -1674 606 -2174 876 -138 75 -173 83 -234 56 -33 -14 -51 -31
-68 -63 -21 -39 -23 -55 -22 -170 l2 -126 -39 -17 c-31 -15 -54 -16 -131 -10
-108 8 -112 5 -121 -66 -6 -42 -4 -48 26 -76 73 -70 309 -199 572 -313 547
-237 1521 -570 2180 -745 327 -86 399 -98 615 -98 335 -1 543 42 981 203 419
155 484 158 717 34 100 -54 102 -56 87 -77 -8 -12 -15 -35 -15 -52 0 -26 31
-60 220 -250 l220 -220 -183 -99 c-100 -55 -353 -192 -562 -304 l-380 -204
-190 16 c-601 50 -1148 -19 -1633 -206 -306 -118 -599 -311 -762 -503 -36 -42
-83 -86 -105 -97 -101 -52 -167 -137 -235 -302 -168 -415 -192 -1049 -60
-1602 l31 -129 -3 -495 c-3 -436 -1 -508 15 -602 29 -177 83 -318 153 -405 19
-22 170 -153 336 -289 761 -623 1328 -1122 3088 -2714 1412 -1277 1863 -1678
2455 -2181 1164 -988 1920 -1514 2411 -1679 216 -72 308 -74 547 -14 428 107
1385 489 2570 1023 2467 1113 5316 2590 5783 2997 74 65 123 153 182 329 112
333 138 654 126 1583 -4 314 -10 572 -14 572 -4 0 -10 96 -13 213 -4 116 -12
253 -17 302 -6 50 -14 149 -19 220 -8 117 -15 148 -64 304 -32 99 -64 183 -76
195 -12 12 -31 43 -44 68 -17 36 -67 83 -242 229 -373 312 -897 729 -1330
1059 -82 63 -220 168 -305 235 -85 66 -227 172 -315 234 -289 206 -745 555
-1870 1432 -1177 917 -1533 1199 -2000 1579 -160 131 -300 243 -310 249 -15 9
-27 10 -47 2 l-28 -11 0 -823 c0 -788 -1 -827 -20 -901 -28 -112 -73 -190
-160 -276 -69 -70 -167 -133 -237 -155 l-23 -6 0 1583 0 1584 49 79 c46 75
118 157 203 232 43 38 168 123 180 123 4 0 8 65 8 144 l0 143 88 33 c299 113
634 339 840 568 544 603 696 1418 402 2151 -290 721 -947 1224 -1760 1346
-103 15 -402 27 -490 19z m-405 -923 c80 -40 155 -120 186 -199 31 -79 31
-195 0 -275 -32 -81 -113 -166 -193 -203 -56 -26 -74 -29 -158 -29 -82 0 -103
4 -152 27 -210 98 -285 365 -155 554 104 152 308 205 472 125z m368 -3487
c143 -73 279 -196 370 -336 l57 -88 0 -1599 0 -1600 -37 -8 c-21 -4 -162 -8
-313 -8 -261 0 -279 1 -350 23 -88 28 -175 71 -219 107 l-31 27 0 1524 0 1525
26 52 c35 68 139 201 200 255 75 66 207 150 237 152 4 0 31 -12 60 -26z
m-2088 -943 c214 -56 364 -180 365 -301 0 -205 -366 -370 -734 -331 -245 27
-434 119 -497 243 -78 153 73 324 341 387 124 29 131 30 295 26 111 -3 171 -9
230 -24z m-5535 -2891 c222 -64 353 -181 353 -314 0 -135 -140 -259 -359 -317
-113 -30 -337 -37 -459 -14 -374 70 -542 308 -352 498 61 60 142 106 244 137
114 34 158 39 333 35 132 -2 180 -7 240 -25z m8315 -6805 c-591 -292 -843
-401 -1214 -525 -302 -101 -308 -102 -646 -71 l-210 20 -125 51 c-69 28 -204
92 -300 142 -167 86 -497 277 -550 318 l-25 20 58 0 c44 0 57 3 57 15 0 13 31
15 215 15 118 0 215 4 215 9 0 5 187 12 415 16 343 6 415 10 415 21 0 11 34
14 183 15 350 1 650 14 655 27 3 9 58 12 213 12 133 0 209 4 209 10 0 6 78 10
215 10 132 0 215 4 215 10 0 5 52 11 123 13 67 1 129 3 137 4 8 1 -106 -59
-255 -132z"/>
</g>
</svg>
