<svg xmlns="http://www.w3.org/2000/svg" height="720" width="1280"><g fill="none" stroke="#9e0157" stroke-linejoin="round" stroke-width="0.5"><path d="M607.859 91.002l-1.329.076-9.801 1.985-9.801 1.984-9.801 1.984-9.801 1.984-9.801 1.985-9.801 1.984-3.422.692-9.328 3.603-9.329 3.603-9.328 3.603-9.329 3.603-9.328 3.602-7.414 2.864-4.054 2.717-8.228 5.684-8.228 5.684-8.227 5.683-8.228 5.684-7.376 5.096-5.653 8.249-5.654 8.248-5.653 8.249-5.706 8.327-5.226 8.526-.242.395-3.847 9.23-3.847 9.231-3.846 9.23-3.847 9.231-2.739 6.572-3.535 9.354-3.535 9.354-3.535 9.354-3.536 9.355-1.435 3.799-2.838 9.589-2.838 9.589-2.837 9.589-2.939 9.93-1.612 9.869-1.612 9.87-1.611 9.869-1.043 6.385-.858 9.963-.858 9.963-.858 9.963-.858 9.963-.858 9.963-.476 5.534.165 5.066"/><path d="M451.066 151.623l8.227-5.684 8.227-5.684 8.228-5.685 8.227-5.684 6.271-4.332 3.297 1.206"/><path d="M888.38 225.535l-1.898 2.28-5.077 6.093-3.939 4.729-6.4 7.683-6.401 7.684-4.56 5.474-.22.265-8.763 4.818-5.077 2.792-1.84 1.012-8.763 4.819-4.021 2.212-8.763 4.818-3.596 1.978-8.763 4.819-4.907 2.699-9.663 2.576-3.309.883-.252.067-9.663 2.576-9.662 2.577-9.662 2.576-9.663 2.576-9.662 2.577-3.239.864-3.96 1.055-5.219 1.392-6.822.481-9.975.703-9.976.702-9.975.703-9.975.703-9.975.703-3.672.258-9.975.703-9.067.639-1.081.076-9.945-1.052-9.944-1.052-9.945-1.052-9.944-1.052-9.303-.984-9.944-1.051-.893-.095-9.422-.997-8.633-.913-9.547-2.977-9.546-2.978-9.546-2.978-9.547-2.977-3.415-1.065-9.547-2.978-.273-.085-1.514-.472-9.547-2.978-2.928-.913-1.49-.465-8.419-5.398-4.504-2.888-8.418-5.397-8.418-5.398-8.419-5.397-2.496-1.601-8.177-5.243-5.55-8.318-.553-.828-3.708-5.557-5.55-8.319-5.55-8.318-.904-1.355-.017-.025-1.984-2.973-.222-.333.228-9.998.228-9.997.228-9.998.11-4.842 5.601-8.284 5.6-8.285 5.601-8.284 4.475-6.619 8.215-5.701 8.216-5.702 8.215-5.701 8.216-5.701 5.427-3.766 9.325-3.613 9.324-3.612 9.325-3.613 9.325-3.612 9.324-3.613 6.335-2.454 9.8-1.989 9.8-1.989 9.8-1.989 9.8-1.989 9.801-1.989 9.8-1.989 1.251-.254"/><path d="M547.466 110.037l-.965-4.794-2.199-1.567M493.543 125.76l1.44 4.744M494.983 130.504l9.316-3.633 9.317-3.633 9.316-3.634 9.317-3.633 9.317-3.633 5.9-2.301"/><path d="M457.078 157.001l8.196-5.729 8.196-5.729 8.196-5.73 8.196-5.729 5.121-3.58-1.487 7.829M435.947 194.256l5.54-8.325 5.539-8.326 5.539-8.326 2.619-3.935 8.173-5.762 8.173-5.762 5.584-3.937 8.173-5.763 8.209-5.787 9.305-3.661 9.305-3.662 9.306-3.662 9.305-3.662 6.215-2.445 9.305-3.662.245-.096 9.794-2.018 9.794-2.018 9.794-2.018 9.795-2.017 9.794-2.018 4.761-.981"/><path d="M546.482 117.483l.984-7.446 9.797-2.001 9.798-2.001 9.798-2.001 9.798-2.001 9.798-2 6.714-1.372M445.905 155.102l5.161-3.479M429.172 183.731l5.634-8.262 5.633-8.262 5.634-8.262 4.993-7.322 4.188.708 1.824 4.67"/><path d="M436.066 188.368l5.565-8.308 5.566-8.308 5.565-8.309 4.316-6.442-1.894 8.343M421.931 224.922l.356-9.994.356-9.994.355-9.993.241-6.766 5.933-4.444"/><path d="M428.154 219.33l.286-9.996.286-9.996.286-9.996.16-5.611 4.805.072 2.089 4.565-.119 5.888-.007.338-.201 9.998-.202 9.998-.148 7.354M416.184 235.133l4.905-8.715.842-1.496"/><path d="M417.771 197.096l-.417 9.991-.417 9.992-.416 9.991-.337 8.063M446.708 263.084l-5.445-8.388-5.446-8.387-5.445-8.387-5.446-8.387-2.995-4.613 6.223-5.592M452.527 256.214l-5.513-8.343-5.513-8.343-5.513-8.343-2.764-4.181-5.07-7.674 5.029-.692M441.325 274.721l4.198-9.075 1.185-2.562M397.049 283.739l3.663-9.305 3.663-9.305 3.663-9.305 3.663-9.305 3.664-9.305.819-2.081 5.361 8.441 5.361 8.442 5.361 8.442 5.36 8.441 3.698 5.822M497.776 296.397l-8.375-5.464-8.376-5.463-8.375-5.464-8.376-5.464-8.375-5.463-8.376-5.464-.815-.531 3.539-4.178 2.28-2.692"/><path d="M502.37 288.339l-8.406-5.418-8.405-5.417-8.406-5.418-8.405-5.417-8.406-5.417-7.815-5.038 4.694-1.55M419.692 547.917l7.509 6.604 7.509 6.603 7.51 6.604 7.509 6.604 7.509 6.604 6.084 5.349 8.343 5.512 8.344 5.512.236.156 9.203 3.912 9.203 3.913 9.203 3.912 9.203 3.912 9.203 3.912 9.204 3.912 9.203 3.912 9.203 3.912 4.404 1.873 9.894 1.454 9.894 1.454 9.894 1.454 9.893 1.455 9.894 1.454 9.894 1.454 9.893 1.454 9.894 1.454 9.894 1.455 2.722.4 9.96-.893 9.96-.892 9.96-.892 9.96-.892 9.96-.893 9.96-.892 9.96-.892 9.961-.892 9.96-.893 5.192-.465 9.427-3.335 9.427-3.336 9.427-3.336 9.428-3.336 9.427-3.335 9.427-3.336 9.427-3.336 9.428-3.336 9.427-3.335 1.671-.592 8.292-5.588 7.435-5.011 8.033-5.956 8.032-5.956 8.033-5.956 8.033-5.956 8.033-5.956 8.032-5.956 8.033-5.956 8.033-5.956 3.433-2.546 5.086-8.61 5.086-8.61 5.086-8.61 5.086-8.61 5.086-8.61 5.086-8.61 2.811-4.759 4.22-9.066 4.219-9.066 4.305-9.249.338-9.995.338-9.994.339-9.994.338-9.995.338-9.994.256-7.555.26-9.997.261-9.996.261-9.997.099-3.817-1.696-9.855-1.696-9.855-1.696-9.856-1.28-7.439-2.918-9.565-2.917-9.565-2.918-9.565-2.719-8.914-.712-2.335-.552-1.427-.807-2.09-3.606-9.327-1.169-3.024-.457-1.182-3.605-9.328-3.045-7.875-.906-2.344-2.316-5.993-2.054-4.832-.045-.104-1.554-3.656-.799-1.88-.425-1-3.912-9.204-3.912-9.203-3.912-9.203-2.469-5.809-4.743-8.804-4.742-8.803-3.557-6.603-.121-.224-3.855-7.157-.722-1.339-1.537-2.854-4.597-7.342-.461-.736-2.301-1.792-7.89-6.145-3.439-2.678-.499-.389-7.505-5.845-.75-.584-7.89-6.144-7.889-6.144-.837-.652-4.346-2.82-9.193-3.935-9.193-3.936-9.192-3.936-9.193-3.936-9.193-3.935-5.819-2.492-9.754-2.204-9.754-2.204-9.754-2.205-9.754-2.204-9.754-2.204-9.61-2.172-9.97-.769-6.63-.511M790.149 105.432l-2.43 1.545"/><path d="M716.441 92.915l9.97.771 4.055.314 9.753 2.21 9.753 2.211 9.752 2.21 9.753 2.211 9.752 2.21 8.49 1.925 9.188 3.947 9.188 3.948 9.188 3.947 9.187 3.948 9.188 3.947 4.765 2.047 7.872 6.167 7.872 6.167 4.631 3.628 7.872 6.166 7.873 6.167.864.677 4.665 8.845 4.666 8.844 4.097 7.765 3.929 7.448-1.093 8.702-.265 2.108-1.246 9.923-1.246 9.922-.534 4.245"/><path d="M836.919 133.529l1.504-4.768 3.509-1.159 7.888 6.148 7.887 6.147 4.668 3.638 7.888 6.147 7.887 6.147 1.664 1.297M787.719 106.977l-1.038 4.812"/><path d="M786.681 111.789l9.177 3.972 9.178 3.971 9.177 3.972 9.178 3.971 9.177 3.972 4.351 1.882"/><path d="M729.915 98.831l9.75 2.226 9.749 2.225 9.749 2.226 9.749 2.225 9.749 2.225 8.02 1.831 1.143 7.514"/><path d="M722.538 105.464l8.002.63 5.474 1.262 9.744 2.247 9.744 2.247 9.745 2.247 9.744 2.247 9.744 2.247 3.089.712 9.163 4.004 1.687.737 9.164 4.003 9.164 4.003 9.163 4.004 9.164 4.003 3.229 1.411 7.823 6.229 1.019.811.749.597 7.445 5.929.478.38 1.087.865 7.823 6.23 2.343 1.866 3.046 2.425 5.196 4.137 2.855 5.499.693 1.337 3.762 7.246.122.235 3.883 7.478 3.268 6.295"/><path d="M838.558 141.468l-1.639-7.939 7.849 6.197 7.849 6.196.761.601 7.849 6.196 7.848 6.197 4.442 3.506M731.769 92.239L730.466 94l-.551 4.831M719.776 98.041l9.97.777.169.013.625 7.263M606.53 91.078l.607 1.06M875.619 280.465l-4.101-9.12-1.263-2.81M870.255 268.535l-8.73 4.876-.798.446-8.731 4.876-8.73 4.876-8.731 4.877-8.73 4.876-8.731 4.876-3.901 2.179M813.173 300.417l.119.39 2.93 9.561.992 3.236M817.214 313.604l8.697-4.935 8.698-4.935 8.697-4.935 8.698-4.935 8.697-4.935 8.698-4.935 6.22-3.529M899.775 232.269l-6.312 7.755-6.313 7.756-6.313 7.755-6.313 7.756-4.269 5.244-2.568-3.17-3.188-3.935M864.499 261.43l-8.753 4.836-8.753 4.835-8.753 4.836-8.753 4.835-8.753 4.836-8.754 4.835-3.131 1.73M808.849 292.173l4.324 8.244-9.654 2.607-9.654 2.608-9.655 2.607-9.654 2.608-9.654 2.607-9.654 2.607-9.654 2.608-10.287 2.778"/><path d="M893.458 226.393l-3.798 4.595-6.37 7.708-6.371 7.708-6.371 7.708-6.049 7.318-4.614-1.687M805.392 289.71l.7.499 2.757 1.964-9.66 2.585-2.648.708-9.661 2.585-9.66 2.584-9.66 2.585-9.66 2.585-9.66 2.584-9.661 2.585-5.427 1.452M905.648 242.832l-4.859-8.74-1.014-1.823M893.68 335.984l-3.094-9.51-3.094-9.509-3.093-9.51-1.564-4.806-3.093-9.509-1.257-3.865-2.866-8.81 6.237-7.816 6.237-7.817 6.237-7.816 6.237-7.817 5.081-6.367M903.894 195.41l-1.11 9.938-1.111 9.938-1.111 9.938-.787 7.045-6.317-5.876"/><path d="M897.729 190.709l-1.189 9.929-1.188 9.929-1.189 9.929-.705 5.897-3.165-.534-1.913-.324M925.332 292.941l-3.656-9.308-3.657-9.307-3.656-9.308-3.656-9.307-.324-.826-3.656-9.307-1.079-2.746 1.033-9.946 1.033-9.947 1.033-9.946.866-8.336-5.26-8.505-.459-.742M879.814 157.126l5.464 3.669 4.736 8.807 4.737 8.807 1.212 2.254 4.736 8.807 3.195 5.94-6.165-4.701"/><path d="M873.517 162.422l1.89-4.689 4.407-.607 4.707 8.823 4.706 8.823 3.713 6.961 4.707 8.823.082.153-4.965-.074-2.128 4.575M890.636 195.21l-.064.506-.422 3.311-1.264 9.919-1.281 10.051-1.123 8.818"/><path d="M875.567 170.937l-2.05-8.515 4.628 8.865 4.629 8.864 2.283 4.374 4.629 8.864.95 1.821M493.522 309.355l3.119-9.501 1.135-3.457M423.319 328.987l3.149-9.492 3.15-9.491 3.149-9.491 3.149-9.491 3.149-9.491 2.26-6.81 8.332 5.529 8.333 5.529 8.332 5.529 8.333 5.529 8.332 5.529 8.333 5.528 2.202 1.461M568.137 318.664l-9.534-3.017-9.534-3.017-9.534-3.017-9.534-3.018-9.534-3.017-9.534-3.017-9.534-3.018-2.162-.684-1.461-.462.204-.358 4.39-7.7"/><path d="M570.812 309.771l-9.543-2.989-9.543-2.988-9.543-2.988-9.543-2.988-9.543-2.989-4.812-1.506-9.543-2.989-6.372-1.995 3.702-2.353M565.663 332.551l1.754-9.845.328-1.84.392-2.202M479.247 368.869l2.333-9.725 2.332-9.724 2.332-9.724 2.333-9.724 2.332-9.724 2.333-9.725.28-1.168 9.52 3.061 9.52 3.061 9.52 3.061 9.52 3.061 9.52 3.061 9.52 3.061 9.52 3.061 5.501 1.769M650.377 327.492l-9.943-1.067-9.943-1.068-9.943-1.067-9.943-1.067-9.943-1.067-9.943-1.068-9.943-1.067-9.942-1.067-2.697-.29 2.672-8.884.003-.009"/><path d="M650.684 318.251l-9.944-1.056-9.944-1.055-9.944-1.056-9.944-1.056-9.944-1.056-9.944-1.056-9.944-1.056-10.264-1.089 2.16-2.919M650.108 341.766l.188-9.998.017-.91.064-3.366"/><path d="M557.363 395.759l1.302-9.915 1.302-9.915 1.302-9.915 1.302-9.915 1.302-9.914 1.302-9.915.488-3.719 9.941 1.084 9.941 1.085 9.941 1.085 9.941 1.085 9.941 1.085 9.941 1.085 9.941 1.085 9.941 1.084 4.917.537M735.307 321.447l-9.975.71-9.974.71-9.975.71-9.975.71-9.975.71-9.974.71-9.975.71-9.975.71-5.132.365.242-7.293.065-1.948"/><path d="M733.152 312.426l-9.975.705-9.975.704-9.975.705-9.976.705-9.975.704-9.975.705-9.975.704-9.975.705-2.667.188.261-3.151"/><path d="M737.333 335.486l-1.428-9.898-.221-1.53-.377-2.611-1.995-8.351-.16-.67-1.714-2.997"/><path d="M649.254 406.533l.132-9.999.132-9.999.132-9.999.132-9.999.131-9.999.132-9.999.063-4.773 9.974-.718 9.975-.718 9.974-.718 9.974-.719 9.974-.718 9.974-.718 9.974-.718 9.975-.718 7.431-.535M744.232 399.337l-1.075-9.942-1.074-9.942-1.074-9.942-1.074-9.942-1.074-9.942-1.074-9.942-.454-4.199 9.645-2.642 9.644-2.642 9.645-2.642 9.645-2.642 9.644-2.642 9.645-2.642 9.645-2.642 9.644-2.642 2.724-.746 2.205 9.754 2.204 9.754 2.205 9.753 2.205 9.754 2.205 9.754 2.205 9.754.444 1.967M452.262 236.256l1.25-.541M452.262 236.256l.415-1.774M364.17 416.46l-2.197-4.615 1.589-9.873 1.589-9.873 1.59-9.873 1.53-9.508M368.271 372.718l.83-9.965.829-9.966.829-9.965.83-9.966.829-9.966.199-2.387M396.002 428.097l-4.477-8.941-3.953-7.895-4.478-8.941-4.477-8.942-4.478-8.942-4.477-8.941-1.391-2.777 2.741-9.617 2.742-9.617 2.741-9.617 2.741-9.617 1.264-4.435M380.5 329.815l.741-9.973.742-9.972.741-9.973.741-9.972.604-8.119M407.645 380.487l-4.722-8.815-4.722-8.815-4.722-8.815-4.722-8.815-4.722-8.814-3.535-6.598 3.38-9.411 3.38-9.412 3.381-9.411 3.38-9.412 3.028-8.43"/><path d="M423.319 328.987l-5.021-8.648-5.021-8.649-5.021-8.648-5.021-8.648-5.021-8.648-1.165-2.007.6-9.982.601-9.982.6-9.982.601-9.982.194-3.221M457.428 477.468l-7.794-6.265-7.795-6.264-7.794-6.265-7.794-6.265-7.795-6.264-7.794-6.265-7.795-6.265-3.287-2.642-3.578-2.876 2.376-9.713 2.375-9.714.087-.356 2.376-9.714 2.375-9.714 2.054-8.399M466.75 425.441l-7.96-6.054-7.959-6.054-7.96-6.054-7.959-6.053-7.959-6.054-7.96-6.054-7.959-6.054-3.389-2.577 2.912-9.567 2.911-9.567 2.912-9.566 2.912-9.567 2.911-9.567 1.116-3.666 8.142 5.806 8.142 5.806 8.142 5.806 8.142 5.805 8.142 5.806 8.142 5.806 7.076 5.047M926.637 518.095l.228-9.997.228-9.998.228-9.997.161-7.087"/><path d="M927.482 481.016l-8.159 5.781-8.16 5.781-8.16 5.781-8.159 5.781-8.16 5.781-8.16 5.781-8.16 5.781-8.159 5.78-5.474 3.879M856.731 531.142l-.16 9.998-.159 9.999-.159 9.999-.136 8.495"/><path d="M856.117 569.633l8.074-5.9 8.073-5.901 8.074-5.9 8.074-5.901 8.073-5.9 8.074-5.901 8.074-5.9 8.073-5.901 5.931-4.334M961.805 424.962l-5.222 8.528-5.222 8.529-5.222 8.528-5.222 8.528-5.222 8.528-5.222 8.529-2.991 4.884-1.414-9.899-1.414-9.9-1.414-9.899-1.415-9.9-.56-3.923M921.265 437.495l-8.273 5.619-8.272 5.618-8.272 5.619-8.273 5.618-8.272 5.619-8.273 5.618-8.272 5.619-8.273 5.618-3.144 2.136M851.941 484.579l1.023 9.948 1.023 9.947 1.023 9.948 1.024 9.947.697 6.773-9.479 3.186-9.479 3.186-9.479 3.187-9.479 3.186-9.478 3.186-9.479 3.187-9.479 3.186-9.479 3.186-9.478 3.187-9.479 3.186-4.53 1.523M955.137 384.756l-5.404 8.414-5.404 8.414-5.404 8.414-5.404 8.414-5.404 8.414-5.404 8.414-1.448 2.255-2.353-9.719-2.353-9.719-2.353-9.719-2.353-9.72-2.391-9.88M909.462 388.738l-8.405 5.419-8.404 5.419-8.405 5.419-8.405 5.418-8.404 5.419-8.405 5.419-8.404 5.419-7.725 4.98"/><path d="M842.905 431.65l1.682 9.858 1.683 9.857 1.683 9.857 1.683 9.858 1.683 9.857.622 3.642-9.516 3.074-9.516 3.074-9.516 3.074-9.516 3.074-9.515 3.074-9.516 3.074-9.516 3.074-9.516 3.074-9.515 3.074-9.516 3.074-1.85.598M942.423 340.503l-5.642 8.257-5.642 8.256-5.642 8.256-5.642 8.257-5.642 8.256-4.751 6.953-2.866-9.58-2.866-9.581-2.867-9.58-2.866-9.58-2.137-7.145-2.18-7.288"/><path d="M925.332 292.941l-5.924 8.056-5.925 8.056-5.924 8.057-5.924 8.056-.807 1.097-5.924 8.056-1.224 1.665-8.549 5.188-5.157 3.13-8.548 5.188-8.549 5.188-8.549 5.189-8.548 5.188-8.549 5.189-6.344 3.85M744.232 399.337l9.6-2.796 9.601-2.797 9.601-2.797 9.601-2.797 9.601-2.797 9.601-2.797 9.601-2.797 9.601-2.797 9.848-2.868 2.044 9.788 2.044 9.789 2.044 9.789 2.044 9.789 2.044 9.789 1.798 8.612-9.558 2.943-9.557 2.942-9.557 2.943-9.557 2.942-9.558 2.943-9.557 2.942-9.557 2.943-9.558 2.943-9.557 2.942-6.566 2.022M914.811 544.221l4.124-9.11 4.123-9.11 3.579-7.906 5.105-8.598 5.106-8.599 5.105-8.598 5.106-8.599 5.105-8.598 5.106-8.599 3.612-6.083.26-9.997.26-9.997.261-9.996.142-5.469M963.71 369.087l-.34 9.994-.341 9.994-.341 9.994-.341 9.995-.341 9.994-.201 5.904-1.636-9.865-1.636-9.865-1.636-9.866-1.637-9.865-.123-.745M957.342 332.082l-.419 9.991-.418 9.992-.418 9.991-.418 9.991-.418 9.991-.114 2.718-2.761-9.612-2.762-9.611-2.761-9.611-2.761-9.611-1.669-5.808M945.158 292.138l-.192 3.396-.565 9.984-.564 9.984-.565 9.984-.564 9.984-.285 5.033-3.381-9.411-3.382-9.411-3.382-9.41-.748-2.082-3.382-9.41-2.816-7.838.773-9.97.772-9.97.773-9.97.773-9.97.272-3.513M863.612 173.911l7.775 6.289 2.5 2.022M453.525 561.394l-.239-9.997-.163-6.834-.201-8.393-.24-9.997-.068-2.855M452.614 523.318l-7.656-6.433-7.657-6.432-7.656-6.433-6.115-5.137M541.841 559.255l-9.276-3.736-9.276-3.736-9.276-3.736-9.276-3.736-9.276-3.736-9.276-3.736-9.276-3.736-6.209-2.5-9.276-3.736-8.81-3.549 1.044-9.945 1.045-9.946 1.044-9.945 1.044-9.945.637-6.069M544.631 511.102l-9.33-3.599-9.33-3.598-9.33-3.599-9.331-3.598-9.33-3.599-9.33-3.599-9.33-3.598-9.33-3.599-9.33-3.598-2.51-.969-.722-.278.2-1.112 1.763-9.843 1.764-9.843 1.763-9.843 1.764-9.844 1.763-9.843.305-1.699"/><path d="M550.073 455.929l-9.391-3.436-9.391-3.437-9.392-3.436-9.391-3.436-9.391-3.436-9.391-3.437-9.391-3.436-9.391-3.436-8.194-2.998 2.157-9.765 2.157-9.765 2.157-9.764 2.157-9.765 2.157-9.764 1.712-7.749 9.456 3.255 9.455 3.254 9.455 3.255 9.456 3.255 9.455 3.255 9.456 3.255 9.455 3.255 9.456 3.255 2.472.851M542.435 598.403l-.151-9.999-.152-9.999-.152-9.999-.139-9.151"/><path d="M453.525 561.394l9.233 3.843 9.232 3.843 9.232 3.842 2.446 1.019 2.427 1.01 9.232 3.843 9.233 3.843 9.232 3.843 9.232 3.843 9.232 3.842 9.232 3.843.947.395M647.782 573.9l-9.906-1.369-9.906-1.37-9.905-1.369-9.906-1.369-9.906-1.37-9.906-1.369-9.906-1.369-9.905-1.369-9.906-1.37-9.906-1.369-6.883-.952.578-9.983.579-9.983.578-9.983.578-9.984.477-8.22"/><path d="M647.993 524.754l-9.914-1.31-9.914-1.309-9.913-1.309-9.914-1.31-9.914-1.309-9.914-1.31-9.914-1.309-9.914-1.309-9.914-1.31-9.914-1.309-4.223-.558.981-9.952.982-9.951.981-9.952.982-9.952.982-9.951.534-5.415M648.516 468.233l-9.923-1.24-9.923-1.24-9.923-1.241-9.922-1.24-9.923-1.24-9.923-1.24-9.923-1.241-9.923-1.24-9.922-1.24-9.138-1.142 1.203-9.928 1.202-9.927 1.203-9.927 1.203-9.928 1.203-9.927 1.203-9.928.073-.605 9.932 1.165 9.932 1.164 9.932 1.165 9.932 1.164 9.932 1.165 9.932 1.164 9.932 1.165 9.932 1.164 9.932 1.165 2.503.293M647.969 613.514l-.047-10-.048-10-.047-10-.045-9.614M548.274 622.276l-1.228-5.021-.596-2.437-2.376-9.714-1.639-6.701 9.899 1.417 9.899 1.417 9.9 1.418 9.899 1.417 9.899 1.418 9.899 1.417 9.899 1.418 9.899 1.417 9.899 1.418 9.899 1.417 6.543.937"/><path d="M757.413 564.528l-9.964.852-9.963.851-9.964.852-9.964.852-9.963.852-9.964.851-9.964.852-9.963.852-9.964.852-9.964.852-9.994.854.043-10 .043-10 .043-10 .043-10 .039-9.146M754.933 515.917l-9.966.823-9.966.824-9.966.823-9.966.824-9.966.823-9.966.824-9.966.824-9.966.823-9.966.824-9.966.823-7.28.602.093-10 .092-9.999.093-10 .092-10 .093-9.999.06-6.523"/><path d="M757.171 603.927l.061-10 .062-10 .061-10 .058-9.399-.509-9.987-.51-9.987-.509-9.987-.51-9.987-.442-8.663-.824-9.966-.824-9.966-.823-9.966-.824-9.966-.824-9.966-.491-5.932-9.968.791-9.969.791-9.969.791-9.968.791-9.969.791-9.969.791-9.968.791-9.969.791-9.969.791-9.968.791-2.121.168.119-9.999.12-10 .12-9.999.119-9.999.12-9.999.12-10 .02-1.704 9.972-.755 9.971-.756 9.971-.755 9.972-.756 9.971-.755 9.972-.755 9.971-.756 9.971-.755 9.972-.756 5.235-.397.996 9.951.997 9.95.996 9.95.997 9.95.997 9.951.996 9.95.112 1.116"/><path d="M648.767 636.96l-.34-9.994-.341-9.995-.117-3.457 9.961-.875 9.962-.874 9.962-.875 9.961-.874 9.962-.875 9.962-.874 9.961-.875 9.962-.875 9.962-.874 9.961-.875 9.586-.841M752.705 627.693l.22-1.172.507-2.698 1.847-9.828 1.847-9.828.045-.24 9.448-3.275 9.449-3.275 9.448-3.275 9.449-3.274 9.449-3.275 9.448-3.275 9.449-3.275 9.449-3.274 9.448-3.275 1.583-.549 1.098-.38 9.449-3.275 1.779-.617-3.414 9.399-3.414 9.4-2.173 5.983-9.431 3.324-9.432 3.325-9.431 3.324-9.431 3.324-9.431 3.325-9.432 3.324-9.431 3.324-9.431 3.324-9.432 3.325-9.529 3.359M548.274 622.276l-9.208-3.901-9.208-3.901-9.208-3.901-9.207-3.901-9.208-3.901-9.208-3.901-9.207-3.901-9.208-3.901-9.208-3.901-2.082-.882-3.663-9.305-3.662-9.306-2.472-6.28-7.553-6.553-7.554-6.553-2.325-2.017M558.274 630.635l-7.673-6.413-2.327-1.946 9.895 1.446 6.419.938 7.99 1.168 9.895 1.445 9.895 1.446 9.895 1.446 9.895 1.446 9.895 1.446 9.895 1.445 9.895 1.446 6.924 1.012"/><path d="M650.04 644.123l-.362-2.038-.626-3.522-.285-1.603 9.961-.888 9.96-.888 9.961-.888 9.96-.889 9.961-.888 9.96-.888 9.961-.888 9.96-.888 10.477-.934 9.616-.857 4.161-.371-7.025 7.117-.807.817M945.87 294.473l6.49-7.608 6.49-7.608 6.49-7.608 1.664-1.951 5.547-8.32 5.547-8.321 5.547-8.321 5.546-8.32.582-.873 4.326-9.016 4.325-9.016 4.326-9.016 2.392-4.986 2.667-9.638 2.668-9.637 2.668-9.638.092-.331.12-6.679-.717-9.975-.718-9.974-.281-3.911-7.496-6.619-3.888-3.433-8.32-5.547-7.434-4.956-9.727-2.324-7.622-1.821-9.975.706-9.975.707-9.334.661-9.65 2.62-9.651 2.62-9.651 2.62-9.65 2.62-4.918 1.335-9.49 3.152-9.49 3.152-9.49 3.152-2.986.991"/><path d="M894.35 132.915l9.58 2.868 5.589 1.673"/><path d="M909.519 137.456l9.645-2.64 9.646-2.64 9.645-2.639 9.645-2.64 6.354-1.739M954.454 125.158l-9.713-2.377-6.871-1.681M835.435 152.516l.179-.093 1.13.479 9.205 3.907 1.938.822.7.298 8.054 5.927 3.878 2.855.626.461 2.588 1.904 6.558 7.55 1.77 2.037 1.048 1.207.778 2.352 1.771 5.348-5.034 2.066-2.041-.909M848.587 157.929l7.485-2.515M972.011 169.8l-2.355-9.719-.061-.253M989.496 176.474l-1.971-9.804-.711-3.533"/><path d="M896.571 180.447l9.426-3.338 9.325-3.302 9.552-2.959 9.552-2.959 9.552-2.959 5.57-1.725 9.861-1.661.475-.08 1.157-.195.381-.065 6.821-1.148 1.352-.228 3.818-.643 8.916 2.629 4.485 1.323M870.624 189.636l8.645-3.061M1004.304 177.618l-1.389-9.903-.95-6.769"/><path d="M1001.965 160.946l-9.897 1.431-5.254.76"/><path d="M1001.965 160.946l-9.261-3.772-4.78-1.947-9.902 1.392-8.92 1.253-6.812.958-1.021.309-.513.156-.348.106-9.57 2.901-9.57 2.901-9.57 2.901-6.709 2.034-9.429 3.331-9.428 3.332-9.682 3.422"/><path d="M973.413 159.185l.034-.009 9.647-2.632 4.83-1.317 6.712-7.414 1.851-2.044M949.548 163.205l9.458-3.248 1.381-.474.381-.131.498-.17 1.024-.352 2.946-4.561 3.558-5.509M915.322 173.807l9.349-3.549.318-.12 2.908-9.398M1004.304 177.618l8.933-3.353-.947-9.955-.946-9.955-.068-.707"/><path d="M1011.276 153.648l-7.87 6.169-1.441 1.129M1011.276 153.648l-8.825-4.701-5.964-3.178-9.942 1.074-9.943 1.074-7.808.843-7.204 2.11-2.514.737-9.597 2.811-9.596 2.811-9.597 2.811-2.389.7-9.441 3.296-9.441 3.297-9.441 3.296-6.979 2.437"/><path d="M996.212 134.008l8.461 5.329 6.968 4.389-.365 9.922M996.212 134.008l-9.968.805-9.967.806-9.445.763"/><path d="M996.487 145.769l-.234-9.997-.041-1.764-7.34-6.792-4.369-4.045-9.979.66-9.978.66-10.092.667 7.408 6.717 4.97 4.507"/><path d="M968.794 148.76l-1.566-9.877-.396-2.501-9.624 2.717-9.624 2.716-9.624 2.717-9.624 2.716-5.336 1.506"/><path d="M923 148.754l-9.46 3.244-9.459 3.244-9.459 3.243-8.883 3.046"/><path d="M927.897 160.74l-3.782-9.257-1.115-2.729-7.664-6.423-5.817-4.875-9.479 3.185-9.479 3.185-9.48 3.185-9.433 3.169M959.884 161.464l-2.46 9.692-2.064 8.128-4.074 9.133-4.074 9.132-4.075 9.133-.596 1.337-5.287 8.488-5.288 8.487-5.287 8.488-2.861 4.594M926.772 238.723l5.083-8.611 5.084-8.611 5.084-8.612 2.199-3.724M944.222 209.165l3.943-9.19 3.943-9.19 3.541-8.252"/><path d="M942.541 208.019l1.681 1.146 8.601 5.1 2.938 1.741M955.649 182.533l2.458-9.693 2.458-9.693.476-1.878"/><path d="M955.36 179.284l.289 3.249 8.259 5.638 2.853 1.948M938.972 245.041l-8.88-4.598-3.32-1.72M938.972 245.041l5.006-8.657 5.006-8.657 5.005-8.657 1.772-3.064M971.81 225.358l-8.64-5.035-7.409-4.317 3.911-9.203 3.911-9.204 3.178-7.48M983.674 198.334l-8.995-4.369-7.918-3.846 2.502-9.682 2.501-9.682.247-.955M989.496 176.474l-9.342-3.566-8.143-3.108-7.764-6.303-2.825-2.293M953.872 255.394l-8.212-5.706-6.688-4.647-6.041 7.969-1.92 2.531"/><path d="M953.872 255.394l5.127-8.586 5.128-8.585 5.127-8.585 2.556-4.28M983.872 232.273l-8.675-4.974-3.387-1.941 4.02-9.157 4.02-9.156 3.824-8.711"/><path d="M997.402 202.898l-9.489-3.155-4.239-1.409 2.574-9.663 2.573-9.663.675-2.534 9.97.771 4.838.373-2.634 9.647-2.634 9.647-1.634 5.986M963.649 264.262l-7.407-6.718-2.37-2.15-6.136 7.896-6.137 7.896-3.032 3.902M963.649 264.262l5.344-8.452 5.343-8.453 5.344-8.452 4.192-6.632M989.773 235.543l-5.901-3.27 4.183-9.083 4.184-9.082 4.184-9.083.979-2.127 7.74.611M967.004 269.698l-3.355-5.436-6.317 7.752-6.317 7.752-6.318 7.752-.898 1.103M377.772 413.438l-9.762 2.169-2.396.532-1.444.321-2.032.451-9.762 2.169-9.762 2.168-3.043.676-9.645-2.638-9.646-2.639-6.929-1.896"/><path d="M322.869 425.484l-6.635-7.482-2.883-3.251-6.635-7.481-6.635-7.482-1.914-2.157-5.989-8.008-5.989-8.009-5.99-8.008-5.777-7.725-8.578-5.14-8.578-5.14-8.578-5.14-8.578-5.14-3.318-1.988-9.41-3.384-9.41-3.384-.446-.16-9.927-1.209-2.597-.316-8.696.999-9.919 1.269-9.919 1.269-2.856.365-1.843.236-.071.009-7.906 1.012M336.641 456.875l-4.017-9.157-4.018-9.158-4.018-9.157-1.719-3.919 9.559 2.937 9.559 2.937 9.559 2.936 9.559 2.937.707.217M361.812 437.448l-8.2-5.723-8.2-5.724-5.841-4.077"/><path d="M381.307 475.157l-4.592-8.883-4.593-8.883-4.592-8.883-4.658-9.009-1.06-2.051.986-.224 9.752-2.214 9.752-2.215 9.751-2.214 7.236-1.644M233.357 358.178l8.73 4.877 8.73 4.877 8.73 4.877 8.731 4.877 8.894 4.969M224.822 341.304l9.86 1.671 2.11.358-2.254 9.742-1.181 5.103M277.172 382.655l6.075 7.943 6.075 7.943 6.075 7.943 6.076 7.943 4.997 6.535"/><path d="M274.422 365.881l1.618 9.868 1.132 6.906-5.906 8.07-5.996 8.193M306.47 420.962l6.433 7.656 6.432 7.657 6.433 7.657 6.432 7.656 4.441 5.287M336.626 489.096l.005-10 .004-10 .005-10 .001-2.221 9.255 3.788 9.255 3.788 9.255 3.788 9.254 3.788 1.444.591 6.203 2.539M387.497 514.447l-1.556-9.878-1.556-9.878-.472-2.995-1.556-9.878-1.05-6.661 9.829-1.842 9.829-1.843 8.804-1.65M209.439 373.353l9.092 4.163 9.092 4.164 9.092 4.163 9.092 4.163 9.093 4.163 9.092 4.164 1.278.585"/><path d="M219.999 355.847l9.851 1.719 3.507.612-8.444 5.357-8.444 5.357-7.03 4.461M245.015 410.628l8.658-5.005 8.657-5.005 2.94-1.7 6.228 7.824 6.228 7.825 6.227 7.824 6.228 7.824 6.227 7.824 4.94 6.207M301.348 444.246l2.149-9.767 2.148-9.766.825-3.751-3.055-8.586-.135-.38-3.353-9.421-1.76-4.944M301.348 444.246l6.183 7.86 6.182 7.86 6.182 7.86 6.183 7.86 6.182 7.86 4.366 5.55"/><path d="M325.988 513.126l4.048-9.144 4.048-9.144 2.542-5.742 8.95 4.46 8.95 4.461 8.95 4.46 8.951 4.46 8.95 4.46 6.12 3.05M381.751 543.843l1.918-9.814 1.919-9.815 1.909-9.767 6.501-.93 9.899-1.416 9.899-1.417 9.9-1.416 5.794-.829M175.357 385.016l9.385 3.451 9.386 3.451 9.386 3.451 9.385 3.451 9.386 3.451 9.386 3.451 9.385 3.451 3.959 1.455"/><path d="M223.263 413.701l9.902-1.399 9.901-1.398 1.949-.276 6.395 7.688 6.396 7.688 6.395 7.688 6.395 7.687 6.395 7.688 6.395 7.688 3.809 4.578M287.195 461.333l6.379-7.701 6.379-7.701 1.395-1.685M268.927 466.307l9.649-2.627 8.619-2.347 5.995 8.004 5.995 8.004 5.995 8.004 5.995 8.003 5.995 8.004 5.995 8.004 2.823 3.77M308.611 520.657l9.175-3.976 8.202-3.555 8.759 4.825 8.759 4.825 8.759 4.825 8.759 4.825 8.759 4.825 8.759 4.824 3.209 1.768"/><path d="M366.432 553.259l8.519-5.236 6.8-4.18 9.936-1.129 9.936-1.13 9.624-1.093 9.936-1.13 9.936-1.129 9.936-1.129 9.936-1.129 1.5-.171M173.612 338.782l-1.877.234-7.943 1.023-9.58 2.87-9.579 2.869-9.58 2.87-6.944 2.08-8.916 4.527-8.917 4.528-8.917 4.527-.917.465-4.636 8.86-2.665 5.092 9.524 3.051 9.594 3.073 8.99 2.841 9.98.633 9.98.632 1.347.086 9.564 2.922 9.563 2.922 9.564 2.922 9.564 2.922 9.563 2.922 9.564 2.922 9.563 2.922 2.987.912 9.564 2.922 1.211.37M223.263 413.701l6.555 7.552 6.556 7.552 6.555 7.551 6.555 7.552 6.555 7.552 6.556 7.552 6.332 7.295"/><path d="M251.57 453.959l8.149 5.797 8.148 5.797 1.06.754 5.897 8.076 5.897 8.077 5.897 8.076 5.897 8.076 5.896 8.077 5.897 8.076 4.303 5.892"/><path d="M212.488 410.409l6.679 7.443 6.679 7.442 6.679 7.443 6.679 7.442 6.679 7.443 5.687 6.337 5.884 8.086 5.883 8.086 5.884 8.086 5.883 8.086 5.884 8.086 5.883 8.086 1.652 2.27 7.838 6.21 7.839 6.209 4.411 3.493 8.71 4.912 8.711 4.911 8.711 4.912 8.711 4.911 8.71 4.912 8.711 4.911 5.557 3.133 9.95-.998 9.95-.998 9.95-.998 9.95-.998 9.95-.998 3.51-.352 3.413-.343.79-.079M146.399 365.391l-9.995-.324-9.994-.323-5.482-.177"/><path d="M148.426 376.853l-5.754-1.947 1.764-4.504 1.963-5.011 8.668-4.987 8.072-4.645 2.462-.816 9.492-3.147 9.492-3.147.794-.264 9.906-1.367 6.287-.867 4.497-.621 2.19.703M120.928 364.567l-10-.084-5.798-.049M105.13 364.434l-4.942 8.693-1.953 3.436M98.235 376.563l9.959-.906 7.075-.644"/><path d="M115.269 375.013l4.763-8.793.896-1.653 8.945-4.471 8.945-4.47 3.61-1.804M130.515 352.024l-8.984 4.392-8.984 4.392-7.417 3.626-4.688.341M163.139 355.759l-9.956-.931-9.957-.931-.798-.075"/><path d="M170.263 345.487l-9.579 2.869-9.58 2.868-8.676 2.598-9.888-1.492-2.025-.306M192.755 338.574l-9.915 1.297-9.916 1.297-9.775 1.278-9.595 2.816-9.595 2.816-9.595 2.816-3.849 1.13-2.406-1.296M185.379 348.385l-9.821-1.883-5.295-1.015"/><path d="M146.463 377.465l1.988-.603.071-.022 9.141-2.774 9.569-2.904 9.569-2.903 2.958-.898 8.907-4.545.634-.324 8.907-4.545 5.973-3.049 3.051-6.482 1.028-2.183.234-.498 1.135-2.411-9.626-2.71-7.247-2.04 2.874 3.519-9.912 1.326-9.912 1.326-5.542.742-7.114-3.041.643-2.407"/><path d="M206.069 345.53l-9.498-3.127-.942-.31 9.621 2.724 3.243.918M192.755 338.574l3.41-2.588.012-.009.129-.098.195.058.017.005 9.584 2.856 9.039 2.693M209.628 343.324l5.513-1.833M209.625 354.757l2.965-7.133.16-.384 2.391-5.749 9.681-.187M204.18 354.898l5.445-.141M183.101 368.904l8.823-4.706 8.824-4.707 8.877-4.734 6.848.719 3.526.371"/><path d="M193.479 371.093l3.246-1.866 8.669-4.984 8.67-4.984 1.448-.833 4.487-2.579 3.148-9.492 1.675-5.051-9.512-3.083-9.513-3.083-.795-.258M179.759 367.361l3.342 1.543M146.577 380.265l3.514-1.093 2.703-.841 9.548-2.97 9.549-2.97 9.549-2.97 1.661-.517 8.99 1.896 1.388.293"/><path d="M156.42 383.125l9.511-3.088 9.511-3.088 9.512-3.088 8.525-2.768 9.901 1.402 6.059.858-9.462 3.238-9.461 3.237-9.461 3.238-5.698 1.95M115.375 381.695l9.908-1.348 7.121-.969 9.909-1.349 4.15-.564.071 1.748.043 1.052"/><path d="M112.259 384.851l9.912-1.324 9.912-1.325 9.912-1.325 4.582-.612 9.603 2.791.24.069"/><path d="M121.249 387.692l9.917-1.287 9.917-1.288 9.917-1.288 5.42-.704 9.951.994 8.986.897-9.926 1.218-9.925 1.219-9.926 1.219-3.024.371M129.97 379.406l-9.879 1.549-4.716.74M93.141 378.727l5.094-2.164 9.58 2.868 7.56 2.264-3.116 3.156M142.672 374.906l-10 .039-10 .039-7.403.029 9.581 2.863 5.12 1.53 9.906-1.37 8.55-1.183.096-.013M690.015 145.701l1.348-1.375.343-.349.347-.354 1.153-1.175 7.002-7.139 4.991-5.089.394-.402.454-.487 6.82-7.314 4.818-5.169 2.231-2.393.986-2.71 1.329-3.651.036-.099.596-1.638-.325-.893-2.36-6.49-.262-.719-.14-.214-3.335-5.126-.076-.117-1.196-1.839-3.054-4.694-7.626-6.462-9.167-3.997-2.562-1.117-9.759-2.185-4.302-.964-9.972-.748-5.424-.407-9.984.569-5.795.329-9.805 1.962-5.42 1.085-9.323 3.615-3.225 1.25-8.068 5.907-.131.096-3.693 5.804-.722 1.136-.446.701-.138.216-1.828 2.873-.668 1.051-.888 1.682-.248.472-3.018 5.725.311 1.555.645 3.223.671 3.352.019.097.877.937 3.627 3.878 6.831 7.303 3.306 3.534.893.909 1.196 1.218 7.008 7.134 4.608 4.691.73.743.263.268.668.68.582.592"/><path d="M619.751 79.195l9.81 1.94 9.81 1.941 9.81 1.94 9.81 1.941 2.199.435M661.19 87.392l-9.112-4.12-9.112-4.12-9.112-4.119-1.555-.703"/><path d="M712.115 86.265l1.646 4.585.834 2.322-2.626 6.884-5.042 4.177-2.638 2.186-.255.107-7.758 3.258-4.627 1.944-9.781 2.083-6.136 1.307-9.982.595-6.774.404-9.968-.806-6.335-.512-9.722-2.344-4.857-1.172-2.351-1.124-7.342-3.511-1.944-.929-1.286-1.261-5.648-5.538-1.503-6.999.503-.957 3.029-5.766 9.991.441 9.99.442 9.99.442 9.99.441 9.677.428"/><path d="M599.903 104.858l5.315-8.471 2.802-4.466 9.964-.849 9.964-.849 9.964-.848 3.363-.287 9.964-.848 9.951-.848M629.029 161.198l1.882-9.821.053-.28 1.174-6.125 2.826 2.864 1.187 1.202 6.613 3.303 8.216 2.081 9.146.784 9.387-.578 8.935-1.988 7.148-3.141 2.153-1.85 2.266-1.948"/><path d="M627.983 156.421l1.046 4.777 4.422 4.599 7.321 3.738 9.118 2.36 9.962.875.197.018 9.98-.621.442-.028 9.753-2.212.151-.034 7.907-3.554 4.881-4.302 1.761-4.691M719.916 114.455l-7.613 6.484-1.197 1.02-9.187 3.95-5.401 2.322-9.772 2.126-8.655 1.883-9.982.605-9.444.572-9.966-.826-8.931-.741-9.708-2.399-7.161-1.77-8.978-4.404-4.438-2.176-7.034-7.107-.9-.909.065-.114 2.224-3.951 2.135-3.794 3.55-6.306 9.76-2.178 9.76-2.177 9.76-2.178 9.76-2.178 9.277-2.07 3.35-.747"/><path d="M606.485 185.708l8.045-5.94 8.045-5.94 8.044-5.94 2.832-2.091 1.59-9.872 1.11-6.887-1.183-1.205-2.837-2.892-1.502-1.531-7.002-7.138-1.342-1.367M622.285 134.905l-6.095-6.168"/><path d="M632.459 139.943l-8.961-4.438-1.213-.6-6.8-7.332-6.002-6.472 4.129-9.107.525-1.157 1.834-4.047.486-1.071 3.8-1.557 9.253-3.791 9.254-3.791 9.253-3.791 9.254-3.791 2.342-.96 1.577-.646M692.76 74.689l-9.278 3.733-9.277 3.733-9.277 3.733-3.738 1.504M661.19 87.392l9.85-1.726 9.849-1.727 9.85-1.726 9.85-1.727 3.9-.683"/><path d="M678.699 71.54l-7.413 6.712-7.414 6.711-2.682 2.429"/><path d="M663.303 70.385l-1.233 9.924-.88 7.083M647.524 71.283l6.47 7.626 6.469 7.626.727.857M714.348 186.838l-7.86-6.182-7.861-6.181-7.86-6.182-2.485-1.954-1.575-9.876-1.111-6.964 1.886-1.979 3.081-3.235 1.335-1.401 6.956-7.301"/><path d="M687.82 140.378l-4.08 5.339-5.292 6.923 1.11 9.938.817 7.315 6.094 7.928 6.095 7.928 6.094 7.929.276.358M698.854 135.583l-9.171 3.986-1.863.809M705.593 129.818l-6.739 5.765 6.686-7.436 5.566-6.188-4.018-9.158-.979-2.234-1.763-4.016-.057-.132-6.602-2.915-9.148-4.038-9.148-4.039-9.149-4.039-7.938-3.504-1.114-.492"/><path d="M661.19 87.392l.649.518 7.812 6.242 7.813 6.242 2.105 1.682 3.491 2.79 5.375 4.294 3.214 2.568 2.83 9.591 2.039 6.912-5.822 8.131-2.876 4.016-9.766 2.15-2.661.586-1.437.316M723.643 178.204l-8.834-4.686-8.835-4.686-8.834-4.685-3.977-2.11-1.892-9.819-.405-2.101-.851-4.416"/><path d="M719.916 114.455l-1.609-2.916-2.242-4.061-1.456-2.64-2.64-4.782-9.703-2.42-9.702-2.42-9.703-2.419-9.703-2.42-10.157-2.533-1.811-.452M694.924 157.346l-.969-4.63-.857-4.095-.903-4.318-.142-.68"/><path d="M722.863 106.357l-.573-.913-5.312-8.472-2.383-3.8-9.942-1.076-9.942-1.076-9.942-1.076-9.942-1.076-10.28-1.113-3.357-.363M712.115 86.265l-9.998.222-9.997.221-9.998.221-9.998.221-9.997.221-.937.021M620.69 193.276l6.459-7.635 6.458-7.635 6.458-7.635.707-.836 1.151-9.933.841-7.261-4.86-5.848-5.445-6.55M645.172 143.126l-9.701-2.429-3.012-.754-6.149-7.887-3.411-4.375 3.02-9.533 2.175-6.865 1.902-1.373 5.932-4.282 3.579-2.584 8.108-5.853 8.109-5.853 4.63-3.343.836-.603"/><path d="M638.627 198.093l3.95-9.187 3.949-9.187 3.364-7.824.623-9.981.467-7.492-4.572-8.893-.911-1.771-.325-.632"/><path d="M659.37 144.323l-9.965-.841-1.905-.16-2.328-.196-4.322-9.018-1.082-2.258 1.679-9.858 1.226-7.193 3.96-5.861 2.766-4.094 1.67-2.472 5.598-8.286 4.132-6.116.391-.578M658.743 199.929l.481-9.989.48-9.988.345-7.164.043-10 .034-7.582-.693-9.976-.063-.907"/><path d="M679.402 198.611l-3.197-9.475-3.196-9.476-2.538-7.521-.546-9.985-.412-7.526 3.688-9.295.755-1.903-9.981.611-4.605.282-.164-2.527-.541-8.379.18-9.998.131-7.302.612-7.937.304-3.947.184-2.384.768-9.97.303-3.929.043-.558.283.539 4.645 8.856 2.398 4.572 1.289 2.458 2.112 4.028 3.815 7.273 1.365 9.906.994 7.216-3.466 9.38-.442 1.195-.227.615M600.859 109.636l-9.792 2.026-9.793 2.026-9.793 2.026-9.792 2.026-1.067.221-9.295 3.686-9.296 3.686-6.745 2.674-9.296 3.686-9.296 3.686-2.056.816-8.466 5.321-1.532.963"/><path d="M481.918 159.639l8.129-5.824 8.129-5.825 8.128-5.824 1.095-.784 7.239-5.187 4.694.442 9.956.937 9.955.937 1.975.186M541.218 138.697l9.275-3.738 9.275-3.737 9.275-3.738 9.493-3.826M578.536 123.658l-9.53-3.031-1.676-.533-6.708-2.133"/><path d="M515.203 157.854l8.052-5.93 8.053-5.929 8.052-5.93 1.858-1.368 9.84 1.779 9.841 1.778 9.84 1.779 5.564 1.006M576.303 145.039l9.241-3.82 9.242-3.82 7.624-3.151M602.41 134.248l-9.141-4.055-9.141-4.054-5.592-2.481 9.788-2.048 9.788-2.048 7.941-1.662"/><path d="M558.601 158.616l7.934-6.086 7.935-6.086 1.833-1.405 9.901 1.399 9.902 1.4 9.901 1.4 4.98.704M610.987 149.942l9.209-3.897 6.071-2.569M626.267 143.476l-9.327-3.608-9.327-3.608-5.203-2.012 9.78-2.086 6.089-1.298M600.914 157.98l7.817-6.237 2.256-1.801 9.956-.941 8.717-.824M469.301 167.772l8.405-5.418 4.212-2.715"/><path d="M504.64 142.479l-8.131 5.82-8.132 5.82-8.132 5.82-8.132 5.82-.576.412-2.236 1.601-3.451 5.341-5.427 8.399-5.427 8.399-4.963 7.681-.033 10-.012 3.574-.034 9.999-.03 9.253 2.753 4.064.835 1.233 5.609 8.279 5.609 8.279 4.127 6.09 3.931 5.804 8.42 5.395 8.419 5.396 3.963 2.539 8.42 5.395 5.552 3.559"/><path d="M464.389 187.154l5.373-8.434 5.373-8.434 5.373-8.434 1.41-2.213 9.986-.536 9.985-.535 9.986-.536 3.328-.178"/><path d="M501.929 180.076l5.128-8.585 5.128-8.585 3.018-5.052 9.998.175 9.999.176 9.998.176 9.999.176 3.404.059"/><path d="M550.173 174.132l4.773-8.787 3.655-6.729 9.998-.15 9.999-.15 9.999-.15 9.999-.151 2.318-.035M596.467 167.032l4.447-9.052 9.784-2.071 9.783-2.072 8.389-1.776M450.033 197.592l8.088-5.881 6.268-4.557"/><path d="M464.808 217.287l-.139-9.999-.139-9.999-.141-10.135 9.827-1.853 9.827-1.852 9.827-1.853 8.059-1.52M503.361 204.093l-.596-9.982-.595-9.982-.241-4.053 9.924-1.222 9.925-1.223 9.925-1.223 9.925-1.223 8.545-1.053M552.136 190.618l-1.183-9.93-.78-6.556 9.884-1.516 9.885-1.516 9.884-1.516 9.884-1.516 6.757-1.036M598.144 176.494l-1.677-9.462 9.478-3.191 9.477-3.191 9.477-3.191 3.084-1.038.887-4.36.79-3.884.914-4.493.051-.252M449.924 230.418l7.499-6.616 7.385-6.515M486.541 248.096l-5.764-8.172-5.764-8.171-5.765-8.172-4.44-6.294 9.462-3.238 9.461-3.238 9.461-3.238 9.462-3.238.707-.242M521.821 228.305l-6.063-7.952-6.063-7.952-6.064-7.953-.27-.355L513 201.43l9.638-2.663 9.639-2.663 9.639-2.663 9.639-2.663.581-.16"/><path d="M565.752 206.944l-6.405-7.68-6.405-7.679-.806-.967 9.56-2.935 9.559-2.934 9.56-2.935 9.56-2.935 7.769-2.385M606.485 185.708l-6.711-7.414-1.63-1.8 8.962-4.438 8.961-4.438 8.961-4.438 4.001-1.982M472.788 264.167l6.502-7.598 6.502-7.598.749-.875"/><path d="M529.061 274.587l-8.487-5.288-8.488-5.288-8.487-5.288-8.488-5.288-8.57-5.339 8.722-4.893 8.721-4.892 8.722-4.893 8.721-4.892.394-.221"/><path d="M556.406 248.845l-8.598-5.106-8.598-5.107-8.598-5.106-8.791-5.221 8.993-4.373 8.993-4.373 8.994-4.373 8.993-4.372 7.958-3.87"/><path d="M589.996 220.564l-8.719-4.898-8.718-4.898-6.807-3.824 8.867-4.623 8.868-4.623 8.867-4.623 8.867-4.623 5.264-2.744 8.826 4.702 5.379 2.866M826.706 145.443l-8.532-5.216-2.153-1.316-9.15-4.036-5.948-2.623-9.149-4.036-9.15-4.036-9.149-4.036-1.329-.586-9.742-2.258-9.742-2.259-9.741-2.258-6.29-1.458-9.742-2.259-4.622-1.071"/><path d="M772.146 119.558l-6.541 1.799-9.642 2.651-3.605.991M752.358 124.999l9.121 4.101 9.12 4.1 9.121 4.101 8.086 3.636M787.806 140.937l9.975-.716 9.974-.716 4.747-.341 3.519-.253 4.882 3.967 7.762 6.306 5.143 4.179 7.762 6.305 5.856 4.758"/><path d="M717.685 116.848l9.735 2.289 9.735 2.288 9.734 2.288 5.469 1.286-9.318 3.63-9.318 3.63-7.649 2.98M726.073 135.239l9.075 4.202 9.074 4.202 6.503 3.011M750.725 146.654l9.884-1.524 9.883-1.524 9.883-1.524 7.431-1.145 7.66 6.429 7.659 6.429 7.659 6.43 1.787 1.501M705.199 130.22l9.723 2.338 9.723 2.337 1.428.344-9.474 3.199-9.474 3.199-7.25 2.448M699.875 144.085l9.029 4.298 5.313 2.53M714.217 150.913l9.932-1.159 9.933-1.159 9.933-1.158 6.71-.783 7.504 6.611 7.503 6.61 1.659 1.461"/><path d="M693.206 142.448l6.669 1.637-7.68.218M630.574 143.684l-4.307-.208 3.628-.787M831.137 252.37l-8.812 4.727-8.812 4.728-8.812 4.727-8.811 4.728-8.812 4.728-3.103 1.664M783.975 277.672l4.658 8.849 3.535 6.715M831.137 252.37l-8.563-5.164-8.564-5.164-8.563-5.164-8.844-5.333M796.603 231.545l-8.893 4.573-8.893 4.572-8.894 4.573-8.893 4.573-2.534 1.302"/><path d="M758.496 251.138l6.926 7.213 6.926 7.213 6.926 7.214 4.701 4.894-9.674 2.534-9.674 2.533-9.674 2.534-9.673 2.534-9.674 2.533-9.674 2.534-5.073 1.328M817.865 208.69l-6.811 7.322-6.811 7.321-6.812 7.322-.828.89-8.85-4.656-8.849-4.656-8.85-4.656-8.85-4.656-7.38-3.883"/><path d="M753.824 209.038l-8.982 4.396-8.982 4.397-8.535 4.178M727.325 222.009l7.306 6.827 7.307 6.828 7.306 6.828 7.306 6.828 1.946 1.818-9.694 2.454-9.695 2.453-9.694 2.454-9.694 2.453-9.695 2.454-1.69.428M769.232 193.685l-7.084 7.059-7.084 7.058-1.24 1.236-8.716-4.902-8.717-4.902-8.716-4.901-8.716-4.902-4.611-2.593M723.643 178.204l-7.326 6.806-1.969 1.828-9.061 4.231-6.353 2.967"/><path d="M679.402 198.611l9.736-2.28 9.796-2.295 7.123 7.019 7.124 7.018 7.123 7.018 7.021 6.918-9.716 2.364-9.717 2.364-9.716 2.365-5.041 1.226M871.597 236.975l-7.375-6.754-7.375-6.753-.294-.27M856.553 223.198l-6.569 7.54-6.569 7.54-6.569 7.54-5.709 6.552 6.327 7.744 6.326 7.744.415.507M861.437 193.107l-1.602 9.871-1.602 9.871-1.603 9.871-.077.478-9.364-3.511-9.363-3.511-9.363-3.512-9.363-3.511-1.235-.463M822.883 184.802l-2.055 9.786-2.056 9.787-.907 4.315-9.555-2.948-9.556-2.948-9.555-2.948-9.556-2.948-9.555-2.949-.856-.264M773.659 177.37l-2.619 9.651-1.808 6.664-9.469-3.215-9.469-3.216-9.469-3.215-9.469-3.216-7.713-2.619 3.089-9.321M876.287 204.145l-8.025-5.965-6.825-5.073"/><path d="M846.045 267.353l6.437-7.653 2.383-2.833 6.437-7.652 6.437-7.653 3.858-4.587.156-1.09 1.414-9.899 1.414-9.9.838-5.86.177-1.243.691-4.838-4.469-8.945-3.235-6.473-.292-.585-3.47-6.944-4.091-8.187-1.088-.882-4.437-3.595-7.77-6.295-3.883-3.146-7.398-5.994-.719-.583-7.77-6.295-.959-.778"/><path d="M847.426 164.426l4.389 8.985 4.39 8.985.338.693 4.39 8.985.504 1.033-9.775-2.105-9.776-2.106-9.776-2.106-9.227-1.988M812.571 161.726l4.08 9.129 4.08 9.13 2.152 4.817-9.887-1.493-9.888-1.493-9.888-1.493-9.888-1.493-9.673-1.46M767.391 161.336l3.641 9.314 2.627 6.72-9.84-1.78-9.841-1.78-9.84-1.779-9.841-1.78-7.565-1.368"/><path d="M723.592 159.574l3.14 9.309-9.401-3.41-9.401-3.409-9.4-3.41-3.606-1.308"/><path d="M860.73 173.011l-8.403-5.422-4.901-3.163-9.97-.772-2.807-.218-9.97-.772-9.97-.773-2.138-.165-9.999-.087-10-.086-10-.086-9.999-.086-5.182-.045-9.992-.402-9.992-.402-9.992-.402-9.992-.402-3.831-.154M693.098 148.621l9.942 1.079 9.942 1.078 1.235.135 7.345 6.785 2.03 1.876-9.742-2.255-9.743-2.254-9.743-2.254-.409-.095M529.061 274.587l7.281-6.854 7.282-6.855 7.281-6.854 5.501-5.179"/><path d="M602.087 262.261l-9.595-2.818-9.595-2.818-9.594-2.818-9.595-2.817-7.302-2.145 7.649-6.44 7.65-6.441 7.65-6.441 7.65-6.44 2.991-2.519M621.268 229.342l-9.628-2.703-9.628-2.702-9.628-2.702-2.388-.671 7.473-6.644 7.474-6.644 7.473-6.644 7.474-6.645.8-.711 9.658 2.594 8.279 2.223M586.333 292.08l-9.564-2.921-9.564-2.921-9.564-2.921-9.564-2.922-9.564-2.921-9.452-2.887-4.97 8.678-4.054 7.077M586.333 292.08l4.671-8.842 4.671-8.842 4.672-8.841 1.74-3.294"/><path d="M654.427 267.483l-9.95-.993-9.951-.992-9.95-.993-9.951-.993-9.951-.993-2.587-.258 5.035-8.64 5.034-8.641 5.034-8.64 4.078-6.998M656.7 232.722l-9.955-.95-9.955-.95-9.955-.949-5.567-.531 4.856-8.742 4.856-8.742 4.856-8.742 2.791-5.023 9.959.909 10.157.927M652.562 298.951l-9.947-1.032-9.946-1.032-9.947-1.032-9.947-1.032-9.946-1.032-9.947-1.031-6.549-.68-2.886 9.575-1.842 6.11M652.562 298.951l.592-9.983.591-9.982.592-9.983.09-1.52M708.334 263.834l-9.977.675-9.977.676-9.977.675-9.978.676-9.977.675-4.021.272.653-9.978.652-9.979.652-9.979.316-4.825"/><path d="M720.859 294.202l-3.813-9.244-3.813-9.245-3.812-9.245-1.087-2.634-4.131-9.107-4.131-9.107-4.131-9.107-2.806-6.185-9.978.656-9.979.655-9.978.656-6.5.427.622-9.981.622-9.981.622-9.98.177-2.851 9.98-.637 9.98-.636.699-.045 3.973 9.177 3.974 9.177 3.973 9.176 1.813 4.187M724.616 309.91l-2.326-9.726-1.431-5.982-9.976.694-9.976.694-9.976.693-9.976.694-9.976.693-9.976.694-8.441.587-.333 9.994-.203 6.079M144.436 370.402l9.637 2.67 3.59.994M165.601 354.943l9.528 3.035 9.528 3.035 4.643 1.479M201.572 346.151l5.659 2.265M451.118 245.518l1.144-9.262-4.852 3.705M435.406 221.969l8.035-5.953 6.547-4.85M435.94 194.594l8.123-5.834 8.122-5.833 8.122-5.833 5.543-3.981M471.537 166.171l3.24-9.46 2.337-6.828M465.398 259.907l3.459-1.544M493.59 277.497l-.441.203M536.932 121.241l-1.646 6.766M736.631 111.325l-.617-3.969M800.923 132.252l-2.249-8.208M859.642 172.129l3.97 1.782-2.467-6.739M871.753 235.885l5.713 2.752M875.419 210.226l2.45 9.695 2.451 9.695 1.085 4.292M854.865 256.867l5.24 2.611M879.269 186.575l7.613 6.157M875.596 208.983l7.68 6.405 4.329 3.609M870.371 166.8l-6.638 2.276M882.877 185.019l-7.219 2.551M925.042 240.956l1.73-2.233-2.529.353M879.115 177.773l-6.006 2.097"/></g></svg>